<svg xmlns="http://www.w3.org/2000/svg" version="1.1" xmlns:xlink="http://www.w3.org/1999/xlink" width="1000" height="1000"><g clip-path="url(#SvgjsClipPath1018)"><rect width="1000" height="1000" fill="#ffffff"></rect><g transform="matrix(0.87890625,0,0,0.87890625,50,50)"><svg xmlns="http://www.w3.org/2000/svg" version="1.1" xmlns:xlink="http://www.w3.org/1999/xlink" width="1024" height="1024"><svg xmlns="http://www.w3.org/2000/svg" xmlns:xlink="http://www.w3.org/1999/xlink" width="1024" height="1024" viewBox="0 0 1024 1024"><path transform="scale(2 2)" d="M93.754 153.229L93.7729 179.854C93.7743 183.444 94.0754 188.887 93.5716 192.255C92.6609 198.342 82.1825 199.018 81.8723 191.424C81.6984 187.168 81.7517 183.006 81.7535 178.779L81.8406 129.326C81.7588 114.041 80.0878 98.7054 94.252 88.4329C105.348 80.3855 118.596 82.2344 131.533 82.2485L390.981 82.2387C400.96 82.2296 407.897 81.6095 416.604 87.7402C433.98 99.9756 430.007 119.787 430.007 138.784L429.998 227.938C430.005 233.191 432.542 251.774 422.339 248.854C419.573 247.995 418.107 246.5 418.085 243.568L418.167 153.229L381.061 153.229C358.742 153.004 368.735 130.381 358.692 131.356C354.735 131.74 345.243 130.5 342.369 132.78C337.837 136.376 344.566 153.221 320.458 153.229L93.754 153.229Z"></path><path fill="#BCDEF6" transform="scale(2 2)" d="M93.754 141.446L93.7336 124.589C93.7195 100.862 96.7668 94.2722 121.511 94.2616L381.061 94.2673L392.905 94.2521C413.582 94.2537 418.184 100.904 418.186 120.94L418.167 141.446L394.305 141.446C390.56 141.419 382.115 141.898 378.8 141.241C374.921 140.472 377.538 128.678 371.028 124.259C360.015 116.785 334.056 116.161 329.504 132.01C326.549 142.626 330.527 141.531 317.194 141.464L93.754 141.446Z"></path><path fill="#07ADF2" transform="scale(2 2)" d="M381.061 94.2673L392.905 94.2521C413.582 94.2537 418.184 100.904 418.186 120.94L418.167 141.446L394.305 141.446L394.322 123.616C394.325 113.563 394.028 97.1367 381.061 94.2673Z"></path><path transform="scale(2 2)" d="M176.48 111.59C179.848 110.737 183.273 112.767 184.139 116.133C185.006 119.498 182.987 122.93 179.625 123.809C176.246 124.692 172.792 122.661 171.921 119.278C171.05 115.895 173.094 112.449 176.48 111.59Z"></path><path transform="scale(2 2)" d="M149.751 111.623C153.183 111.255 156.265 113.733 156.643 117.163C157.022 120.594 154.552 123.683 151.123 124.071C147.68 124.46 144.575 121.979 144.196 118.535C143.816 115.091 146.306 111.993 149.751 111.623Z"></path><path transform="scale(2 2)" d="M122.801 111.424C126.183 111.081 129.22 113.5 129.644 116.873C130.067 120.246 127.721 123.34 124.359 123.843C122.112 124.179 119.86 123.272 118.473 121.472C117.087 119.672 116.785 117.263 117.683 115.176C118.582 113.09 120.541 111.654 122.801 111.424Z"></path><path fill="#FEC302" transform="scale(2 2)" d="M250.65 284.877C252.808 285.509 255.439 286.789 256.084 289.121C256.944 292.233 256.909 318.823 256.317 322.578C252.653 345.854 230.945 343.298 213.888 343.307L155.924 343.313C141.628 343.309 125.044 343.195 121.229 324.752C120.095 319.273 120.705 310.596 120.715 304.697L120.7 230.509C120.7 223.545 120.456 216.118 120.895 209.256C122.431 185.233 145.227 186.491 162.148 186.486L223.129 186.486C251.922 186.485 256.578 192.134 256.582 221.748L256.615 261.329C256.649 266.129 256.552 270.853 250.972 271.969L250.65 272.03C250.663 276.11 250.781 280.859 250.65 284.877Z"></path><path transform="scale(2 2)" d="M250.65 284.877C252.808 285.509 255.439 286.789 256.084 289.121C256.944 292.233 256.909 318.823 256.317 322.578C252.653 345.854 230.945 343.298 213.888 343.307L155.924 343.313C141.628 343.309 125.044 343.195 121.229 324.752C120.095 319.273 120.705 310.596 120.715 304.697L120.7 230.509C120.7 223.545 120.456 216.118 120.895 209.256C122.431 185.233 145.227 186.491 162.148 186.486L223.129 186.486C251.922 186.485 256.578 192.134 256.582 221.748L256.615 261.329C256.649 266.129 256.552 270.853 250.972 271.969L250.65 272.03C241.814 269.301 244.663 259.279 244.672 250.867L244.7 221.47C244.696 211.103 246.642 198.592 232.228 198.474L154.765 198.434C130.643 198.432 132.363 203.707 132.367 227.429L132.368 298.767C132.368 304.809 131.066 320.755 134.432 325.645C139.438 332.918 146.999 331.564 154.488 331.494L212.479 331.515C232.472 331.537 244.829 336.634 244.718 311.52L244.656 297.766C244.636 292.717 243.919 285.872 250.65 284.877Z"></path><path transform="scale(2 2)" d="M186.909 214.508C191.896 213.719 198.887 215.346 203.453 217.548C236.875 233.832 212.549 298.767 176.524 280.082C175.637 281.45 175.904 283.287 174.663 284.669C170.232 289.601 161.624 286.572 155.442 296.102C152.978 300.733 153.089 309.033 144.767 305.275C138.948 302.647 142.588 294.487 144.791 290.544C150.576 280.188 158.502 278.114 169.049 275.264C150.292 253.709 154.128 215.077 186.909 214.508Z"></path><path fill="white" transform="scale(2 2)" d="M185.166 226.304C215.383 223.892 212.253 265.101 192.21 270.681C169.345 276.123 158.733 231.301 185.166 226.304Z"></path><path transform="scale(2 2)" d="M209.542 276.269C226.374 275.56 244.288 299.544 231.914 305.651C220.648 307.03 227.744 293.19 212.586 288.467C205.729 286.331 201.827 280.893 209.542 276.269Z"></path><path transform="scale(2 2)" d="M381.061 153.229L418.167 153.229L418.085 243.568C418.107 246.5 419.573 247.995 422.339 248.854C422.001 249.653 422.353 264.246 422.903 264.559C429.038 264.264 430.014 268.235 430.055 273.391L430.008 387.116C430.018 390.858 430.506 396.283 429.796 399.802C426.658 415.353 413.56 424.857 398.197 424.841L120.372 424.792C101.819 424.893 85.3918 418.694 82.2767 397.346C81.5964 392.683 82.0291 387.845 81.8564 383.148L81.7559 220.877C81.6592 204.061 94.1784 211.14 93.6817 216.566C93.8213 221.975 93.7709 227.301 93.7678 232.676L93.7483 376.692C93.7386 401.973 93.134 413.043 123.829 413.03L385.753 413.017C387.745 409.589 393.454 405.384 394.086 400.651C394.705 396.018 394.298 389.33 394.298 384.451L394.306 173.886C394.304 167.426 394.027 159.484 394.305 153.229C392.888 153.224 381.469 153.442 381.061 153.229Z"></path><path fill="#BCDEF6" transform="scale(2 2)" d="M381.061 153.229L418.167 153.229L418.085 243.568C418.107 246.5 419.573 247.995 422.339 248.854C422.001 249.653 422.353 264.246 422.903 264.559C415.917 267.392 418.121 276.914 418.165 283.543L418.165 371.871C418.182 385.781 422.101 405.312 406.178 411.423C399.738 413.894 392.729 412.976 385.753 413.017C387.745 409.589 393.454 405.384 394.086 400.651C394.705 396.018 394.298 389.33 394.298 384.451L394.306 173.886C394.304 167.426 394.027 159.484 394.305 153.229C392.888 153.224 381.469 153.442 381.061 153.229Z"></path><path transform="scale(2 2)" d="M162.633 371.706C163.724 371.58 167.095 371.671 168.31 371.675L324.639 371.721C333.721 371.946 334.595 382.079 326.634 383.586C325.384 383.718 321.905 383.62 320.498 383.616L164.119 383.546C155.557 383.507 155.05 372.919 162.633 371.706Z"></path><path transform="scale(2 2)" d="M285.132 257.487L384.061 257.516C391.589 257.557 393.478 266.975 385.753 269.571C383.147 269.802 377.779 269.577 374.87 269.576L288.709 269.554C276.52 268.67 279.537 259.071 285.132 257.487Z"></path><path transform="scale(2 2)" d="M285.132 287.506C287.602 287.312 292.411 287.499 295.115 287.5L365.32 287.503C370.045 287.503 381.754 287.096 386.078 287.852C390.557 288.635 392.67 296.266 385.753 299.388C383.66 299.626 378.233 299.396 375.76 299.394L287.447 299.393C278.345 298.814 278.431 290.121 285.132 287.506Z"></path><path transform="scale(2 2)" d="M286.622 197.184L323.561 197.175C327.425 197.171 347.842 196.376 350.198 197.729C355.935 201.023 353.223 207.827 347.664 209.225L306.625 209.235C299.717 209.235 292.87 209.373 285.88 209.057C279.414 208.765 277.388 197.879 286.622 197.184Z"></path><path transform="scale(2 2)" d="M285.132 317.655C293.598 317.257 340.719 317.22 343.182 318.08C349.095 320.143 347.242 327.559 342.294 329.688C340.623 329.859 337.54 329.714 335.767 329.703L298.906 329.696C294.372 329.694 283.727 331.234 281.367 326.418C279.233 322.064 281.366 319.445 285.132 317.655Z"></path><path transform="scale(2 2)" d="M285.132 227.731C290.43 227.697 321.606 227.116 324.374 228.461C329.894 231.142 328.421 238.331 322.924 239.75C310.853 240.02 298.577 239.591 286.494 239.72C279.26 239.798 277.679 230.03 285.132 227.731Z"></path><path transform="scale(2 2)" d="M128.423 367.49C134.273 366.064 140.163 369.681 141.538 375.542C142.913 381.404 139.246 387.262 133.373 388.587C127.571 389.895 121.799 386.282 120.44 380.492C119.082 374.701 122.645 368.898 128.423 367.49Z"></path></svg></svg></g></g><defs><clipPath id="SvgjsClipPath1018"><rect width="1000" height="1000" x="0" y="0" rx="350" ry="350"></rect></clipPath></defs></svg>